<svg width="29" height="28" viewBox="0 0 29 28" fill="none" xmlns="http://www.w3.org/2000/svg">
<path fill-rule="evenodd" clip-rule="evenodd" d="M11.455 1.27381C11.4552 1.0084 11.3725 0.749544 11.2183 0.533485C11.0641 0.317425 10.8463 0.15497 10.5952 0.0688523C10.3442 -0.0172651 10.0725 -0.0227346 9.81814 0.0532093C9.56382 0.129153 9.33961 0.28271 9.17688 0.49239L0.268145 11.9465C0.0943554 12.1699 0 12.4449 0 12.7279C0 13.0109 0.0943554 13.2859 0.268145 13.5093L9.17688 24.9634C9.33961 25.1731 9.56382 25.3266 9.81814 25.4026C10.0725 25.4785 10.3442 25.4731 10.5952 25.3869C10.8463 25.3008 11.0641 25.1384 11.2183 24.9223C11.3725 24.7063 11.4552 24.4474 11.455 24.182V19.104C18.3007 19.2465 21.5893 20.5459 23.2412 21.9586C24.8117 23.3013 25.0993 24.8807 25.3984 26.5352L25.476 26.9615C25.5331 27.2666 25.6998 27.5403 25.9446 27.7311C26.1893 27.9219 26.4954 28.0167 26.8052 27.9976C27.115 27.9785 27.4071 27.8469 27.6267 27.6275C27.8462 27.4081 27.978 27.116 27.9972 26.8062C28.2148 23.3089 27.8878 18.2411 25.4175 14.0018C23.0198 9.88729 18.7016 6.72341 11.455 6.39252V1.27381Z" fill="white"/>
</svg>
