<svg width="24" height="24" viewBox="0 0 24 24" fill="none" xmlns="http://www.w3.org/2000/svg">
<path d="M21 24H3C2.17187 24 1.46484 23.707 0.878906 23.1211C0.292969 22.5352 0 21.8281 0 21V3C0 2.17188 0.292969 1.46484 0.878906 0.878906C1.46484 0.292969 2.17187 0 3 0H21C21.8281 0 22.5352 0.292969 23.1211 0.878906C23.707 1.46484 24 2.17188 24 3V21C24 21.8281 23.707 22.5352 23.1211 23.1211C22.5352 23.707 21.8281 24 21 24ZM21 4.5C21 4.09375 20.8516 3.74219 20.5547 3.44531C20.2578 3.14844 19.9062 3 19.5 3H9C8.75 3 8.5 3.0625 8.25 3.1875C8 3.3125 7.8125 3.4375 7.6875 3.5625L7.5 3.75L10.8516 7.125C9.85156 7.67188 8.89453 8.32812 7.98047 9.09375C7.06641 9.85938 6.23047 10.707 5.47266 11.6367C4.71484 12.5664 4.11328 13.5859 3.66797 14.6953C3.22266 15.8047 3 16.9062 3 18C3 18.1094 2.99609 18.2695 2.98828 18.4805C2.98047 18.6914 2.97656 18.8789 2.97656 19.043C2.97656 19.207 2.98437 19.3594 3 19.5C3 19.9219 3.14453 20.2773 3.43359 20.5664C3.72266 20.8555 4.07422 21 4.48828 21C4.90234 21 5.25781 20.8555 5.55469 20.5664C5.85156 20.2773 6 19.9219 6 19.5C6.29688 18.1719 6.96094 17.0156 7.99219 16.0312C9.02344 15.0469 10.2656 14.293 11.7188 13.7695C13.1719 13.2461 14.7812 12.9219 16.5469 12.7969L20.25 16.5C20.2656 16.5 20.332 16.4375 20.4492 16.3125C20.5664 16.1875 20.6875 16 20.8125 15.75C20.9375 15.5 21 15.25 21 15V4.5Z" fill="#69CC8E"/>
</svg>
