<svg width="29" height="32" viewBox="0 0 29 32" fill="none" xmlns="http://www.w3.org/2000/svg">
<path d="M0 0V32H2.63636V21.3333H29V0H0ZM2.63636 2.66667H6.59091V6.66667H10.5455V2.66667H14.5V6.66667H18.4545V2.66667H22.4091V6.66667H26.3636V10.6667H22.4091V14.6667H26.3636V18.6667H22.4091V14.6667H18.4545V18.6667H14.5V14.6667H10.5455V18.6667H6.59091V14.6667H2.63636V10.6667H6.59091V6.66667H2.63636V2.66667ZM6.59091 10.6667V14.6667H10.5455V10.6667H6.59091ZM10.5455 10.6667H14.5V6.66667H10.5455V10.6667ZM14.5 10.6667V14.6667H18.4545V10.6667H14.5ZM18.4545 10.6667H22.4091V6.66667H18.4545V10.6667Z" fill="white"/>
</svg>
