<svg width="47" height="48" viewBox="0 0 47 48" fill="none" xmlns="http://www.w3.org/2000/svg">
<path d="M23.4884 0.529171H23.6644C27.9086 0.529171 31.8801 1.7315 35.2818 3.8243L35.1777 3.7635C38.6586 5.85546 41.5595 8.8429 43.5997 12.4368L43.6584 12.5505C45.7211 16.2218 46.8019 20.3964 46.7894 24.6444C46.7894 35.2477 40.1961 44.2583 31.0263 47.5103L30.8616 47.5613C30.6565 47.6254 30.4396 47.6387 30.2286 47.6002C30.0175 47.5617 29.8181 47.4725 29.6463 47.3396L29.6501 47.3416C29.526 47.2266 29.4268 47.0857 29.359 46.9282C29.2911 46.7707 29.2561 46.6001 29.2564 46.4276V46.4001V46.4021L29.2715 43.9974C29.2816 42.4571 29.2867 41.0488 29.2867 39.7726C29.3569 38.9548 29.2519 38.1309 28.9793 37.3599C28.7067 36.5889 28.2733 35.8898 27.7098 35.3124C28.8075 35.2032 29.8951 35.0032 30.962 34.7142L30.8181 34.7475C31.836 34.4587 32.8139 34.0355 33.7277 33.4883L33.669 33.5217C34.6016 32.9934 35.431 32.2896 36.1147 31.4465L36.1261 31.4328C36.8488 30.4715 37.3884 29.3765 37.7162 28.2063L37.7333 28.1377C38.1511 26.686 38.361 25.1786 38.3561 23.6637L38.3542 23.397V23.4107L38.3561 23.2695C38.3589 20.9187 37.5003 18.6544 35.9538 16.9342L35.9595 16.9401C36.2775 16.0771 36.4612 15.0807 36.4612 14.0392C36.4627 12.8093 36.2015 11.5943 35.6964 10.4813L35.7172 10.5322C34.8753 10.3701 34.0053 10.4946 33.2374 10.8873L33.2601 10.8775C32.2636 11.2546 31.305 11.7315 30.3979 12.3014L30.4698 12.2583L29.317 13.0114C27.5716 12.4936 25.5669 12.1955 23.496 12.1955C21.425 12.1955 19.4203 12.4936 17.5197 13.0507L17.6731 13.0114C17.35 12.7813 16.9203 12.4982 16.3839 12.1622C15.6115 11.7095 14.8065 11.3193 13.976 10.9951L13.8511 10.952C13.0524 10.5212 12.1393 10.3738 11.252 10.5322L11.2766 10.5283C10.7828 11.6264 10.5287 12.8238 10.5326 14.0353C10.5326 15.0768 10.7163 16.0751 11.0532 16.995L11.0343 16.9381C9.45634 18.6947 8.59786 21.0173 8.63964 23.4166V23.4088L8.63775 23.6637C8.63775 25.2505 8.86491 26.7843 9.28894 28.2279L9.26055 28.1161C9.61833 29.3773 10.1616 30.4737 10.8696 31.4367L10.8526 31.4112C11.5162 32.258 12.3304 32.9651 13.251 33.4942L13.2927 33.5158C14.1104 34.0101 15.0588 34.4278 16.0564 34.7201L16.1435 34.7417C17.0257 34.9868 18.082 35.1869 19.1629 35.2987L19.2499 35.3065C18.4341 36.146 17.8908 37.2679 17.7658 38.5193L17.7639 38.5428C17.3425 38.7519 16.8982 38.9074 16.4407 39.0057L16.401 39.0136C15.9164 39.1136 15.3617 39.1705 14.7919 39.1705H14.667H14.6727C13.9558 39.1563 13.2598 38.9185 12.6755 38.4879L12.6869 38.4958C11.9919 37.996 11.4205 37.3334 11.0192 36.5618L11.0059 36.5324C10.6416 35.8881 10.1453 35.3344 9.55207 34.9103L9.53503 34.8986C9.09448 34.5574 8.59627 34.3047 8.06606 34.1532L8.03577 34.1454L7.43001 34.0513C7.12599 34.028 6.8209 34.0777 6.5384 34.1964L6.55165 34.1905C6.39012 34.2847 6.33964 34.405 6.40021 34.5514C6.47404 34.7201 6.56491 34.8652 6.6747 34.9927L6.67281 34.9908C6.78828 35.132 6.9189 35.2555 7.06087 35.3634L7.06655 35.3673L7.27857 35.5243C7.81429 35.8145 8.25536 36.2186 8.59042 36.707L8.59799 36.7187C8.95956 37.1836 9.27759 37.7092 9.53314 38.2722L9.55207 38.3192L9.85495 39.041C10.1105 39.8295 10.5743 40.4885 11.1801 40.9651L11.1895 40.973C11.7574 41.432 12.4427 41.7615 13.1904 41.9105L13.2207 41.9145C13.8454 42.04 14.5723 42.1184 15.3144 42.1341H15.3276C15.4128 42.1381 15.5113 42.1381 15.6116 42.1381C16.1057 42.1381 16.5903 42.0969 17.0635 42.0164L17.0124 42.0243L17.709 41.8988C17.709 42.6951 17.7141 43.6222 17.7242 44.68C17.7343 45.7379 17.7393 46.3086 17.7393 46.3923V46.4198C17.7393 46.7826 17.5879 47.1082 17.3456 47.3338H17.3437C17.1715 47.4679 16.9709 47.5575 16.7586 47.5954C16.5463 47.6333 16.3283 47.6182 16.1227 47.5515L16.1322 47.5534C6.80153 44.2407 0.213867 35.23 0.213867 24.6248C0.213867 20.1764 1.37239 16.0084 3.39601 12.4269L3.33544 12.5407C5.35447 8.93405 8.23775 5.92838 11.7063 3.8145L11.8161 3.75369C15.2993 1.62883 19.2703 0.514367 23.3123 0.527209H23.4979H23.4884V0.529171ZM9.02581 35.1791C9.08639 35.0326 9.01572 34.9071 8.8138 34.8025C8.61188 34.7397 8.48063 34.7606 8.42005 34.8652C8.35948 35.0117 8.43015 35.1372 8.63207 35.2418C8.8138 35.3673 8.94505 35.3464 9.02581 35.1791ZM9.96664 36.248C10.108 36.1434 10.0878 35.976 9.90606 35.7459C9.70414 35.5576 9.54261 35.5262 9.42145 35.6517C9.28011 35.7563 9.3003 35.9237 9.48203 36.1539C9.68269 36.3591 9.84422 36.3899 9.96664 36.246V36.248ZM10.8753 37.6602C11.057 37.5138 11.057 37.315 10.8753 37.0639C10.7137 36.792 10.5421 36.7292 10.3604 36.8756C10.1787 36.9803 10.1787 37.1685 10.3604 37.4405C10.5421 37.7125 10.7137 37.7857 10.8753 37.6602ZM12.1474 38.9802C12.3089 38.8128 12.2685 38.6141 12.0262 38.384C11.7839 38.1329 11.582 38.1015 11.4205 38.2898C11.2387 38.4572 11.2791 38.6559 11.5416 38.8861C11.7839 39.1371 11.9858 39.1659 12.1474 38.9724V38.9802ZM13.8757 39.7648C13.9363 39.5346 13.805 39.3673 13.482 39.2627C13.1791 39.179 12.9872 39.2522 12.9065 39.4823C12.8257 39.7125 12.957 39.8694 13.3002 39.9531C13.6031 40.0799 13.7949 40.0171 13.8757 39.7648ZM15.7857 39.9217C15.7857 39.6497 15.6141 39.5346 15.2708 39.5765C14.9478 39.5765 14.7862 39.6915 14.7862 39.9217C14.7862 40.1937 14.9579 40.3087 15.3011 40.2669C15.6242 40.2682 15.7857 40.1538 15.7857 39.9236V39.9217ZM17.5443 39.6079C17.504 39.3777 17.3222 39.2836 16.9992 39.3254C16.6761 39.3882 16.5347 39.5451 16.5751 39.7962C16.6155 40.0472 16.7972 40.1309 17.1203 40.0472C17.4434 39.9635 17.5854 39.8171 17.5462 39.6079H17.5443Z" fill="#69CC8E"/>
</svg>
