<svg width="24" height="31" viewBox="0 0 24 31" fill="none" xmlns="http://www.w3.org/2000/svg">
<path d="M21.3333 3.1H15.76C15.2 1.302 13.7333 0 12 0C10.2667 0 8.8 1.302 8.24 3.1H2.66667C1.2 3.1 0 4.495 0 6.2V27.9C0 29.605 1.2 31 2.66667 31H21.3333C22.8 31 24 29.605 24 27.9V6.2C24 4.495 22.8 3.1 21.3333 3.1ZM12 3.1C12.7333 3.1 13.3333 3.7975 13.3333 4.65C13.3333 5.5025 12.7333 6.2 12 6.2C11.2667 6.2 10.6667 5.5025 10.6667 4.65C10.6667 3.7975 11.2667 3.1 12 3.1ZM12 9.3C14.2133 9.3 16 11.377 16 13.95C16 16.523 14.2133 18.6 12 18.6C9.78667 18.6 8 16.523 8 13.95C8 11.377 9.78667 9.3 12 9.3ZM20 27.9H4V25.73C4 22.63 9.33333 20.925 12 20.925C14.6667 20.925 20 22.63 20 25.73V27.9Z" fill="#9B8EFF"/>
</svg>
