<svg width="25" height="25" viewBox="0 0 25 25" fill="none" xmlns="http://www.w3.org/2000/svg">
<path d="M12.4707 0C15.9055 0 18.8525 1.22261 21.3115 3.66784C23.7705 6.11307 25 9.05712 25 12.5C25 15.9429 23.7705 18.8869 21.3115 21.3322C18.8525 23.7774 15.9055 25 12.4707 25C9.03591 25 6.09875 23.7774 3.65925 21.3322C1.21975 18.8869 0 15.9429 0 12.5C0 9.05712 1.21975 6.11307 3.65925 3.66784C6.09875 1.22261 9.03591 0 12.4707 0ZM12.5 22.5352C15.2518 22.5352 17.6034 21.5571 19.555 19.6009C21.5066 17.6448 22.4824 15.2778 22.4824 12.5C22.4824 9.72222 21.5066 7.35524 19.555 5.39906C17.6034 3.44288 15.2518 2.46479 12.5 2.46479C9.74824 2.46479 7.39656 3.44288 5.44496 5.39906C3.49336 7.35524 2.51756 9.72222 2.51756 12.5C2.51756 15.2778 3.49336 17.6448 5.44496 19.6009C7.39656 21.5571 9.74824 22.5352 12.5 22.5352ZM16.2178 12.5C16.2178 13.5563 15.8568 14.4464 15.1347 15.1702C14.4126 15.894 13.5343 16.2559 12.5 16.2559C11.4657 16.2559 10.5777 15.894 9.83607 15.1702C9.09446 14.4464 8.72365 13.5563 8.72365 12.5C8.72365 11.4437 9.09446 10.5536 9.83607 9.82981C10.5777 9.10603 11.4657 8.74413 12.5 8.74413C13.5343 8.74413 14.4126 9.10603 15.1347 9.82981C15.8568 10.5536 16.2178 11.4437 16.2178 12.5Z" fill="white"/>
</svg>
