<svg width="55" height="35" viewBox="0 0 55 35" fill="none" xmlns="http://www.w3.org/2000/svg">
<path fill-rule="evenodd" clip-rule="evenodd" d="M50.7692 0H4.23077C3.1087 0 2.03259 0.409721 1.23916 1.13903C0.44574 1.86834 0 2.85749 0 3.88889V31.1111C0 32.1425 0.44574 33.1317 1.23916 33.861C2.03259 34.5903 3.1087 35 4.23077 35H50.7692C51.8913 35 52.9674 34.5903 53.7608 33.861C54.5543 33.1317 55 32.1425 55 31.1111V3.88889C55 2.85749 54.5543 1.86834 53.7608 1.13903C52.9674 0.409721 51.8913 0 50.7692 0V0ZM50.7692 31.1111H4.23077V3.88889H50.7692V31.1111ZM38.0769 7.77778H33.8462V11.6667H38.0769V7.77778ZM33.8462 15.5556H29.6154V19.4444H33.8462V15.5556ZM42.3077 7.77778H46.5385V11.6667H42.3077V7.77778ZM46.5385 23.3333H42.3077V27.2222H46.5385V23.3333ZM16.9231 23.3333H38.0769V27.2222H16.9231V23.3333ZM46.5385 15.5556H38.0769V19.4444H46.5385V15.5556ZM25.3846 7.77778H29.6154V11.6667H25.3846V7.77778ZM25.3846 15.5556H21.1538V19.4444H25.3846V15.5556ZM8.46154 23.3333H12.6923V27.2222H8.46154V23.3333ZM8.46154 7.77778H12.6923V11.6667H8.46154V7.77778ZM21.1538 7.77778H16.9231V11.6667H21.1538V7.77778ZM8.46154 15.5556H16.9231V19.4444H8.46154V15.5556Z" fill="white"/>
</svg>
