<svg width="54" height="48.66" viewBox="0 0 81 73" fill="none" xmlns="http://www.w3.org/2000/svg">
<ellipse cx="35.4818" cy="33.5565" rx="35.4818" ry="33.5565" fill="#9B8EFF"/>
<ellipse cx="35.207" cy="33.8314" rx="23.6546" ry="21.1791" fill="#1C1A39"/>
<rect x="59.7419" y="42.9082" width="26.5637" height="17.3206" transform="rotate(38.502 59.7419 42.9082)" fill="#9B8EFF"/>
<rect x="18.1536" y="20.9041" width="26.5937" height="25.855" fill="#1C1A39"/>
<path d="M31.8966 36.9442C31.8966 38.2107 31.2375 40.2832 29.6773 40.2832C28.1171 40.2832 27.458 38.2107 27.458 36.9442C27.458 35.6777 28.1171 33.6053 29.6773 33.6053C31.2375 33.6053 31.8966 35.6777 31.8966 36.9442ZM49.6693 33.8841C49.6693 35.8171 49.4758 37.8653 48.611 39.6408C46.3191 44.2826 40.018 44.1735 35.5068 44.1735C30.923 44.1735 24.2469 44.3371 21.8644 39.6408C20.9815 37.8835 20.6428 35.8171 20.6428 33.8841C20.6428 31.345 21.4834 28.9454 23.1524 27.0002C22.8379 26.0427 22.6868 25.0368 22.6868 24.043C22.6868 22.7402 22.9831 22.0857 23.5697 20.9041C26.309 20.9041 28.0627 21.4494 30.149 23.0856C31.9027 22.6674 33.7047 22.4796 35.5128 22.4796C37.1456 22.4796 38.7904 22.6553 40.3748 23.0371C42.4308 21.4191 44.1845 20.9041 46.8936 20.9041C47.4862 22.0857 47.7765 22.7402 47.7765 24.043C47.7765 25.0368 47.6193 26.0245 47.3109 26.9638C48.9738 28.9272 49.6693 31.345 49.6693 33.8841ZM45.7809 36.9442C45.7809 34.284 44.1663 31.9389 41.3363 31.9389C40.1933 31.9389 39.0988 32.1449 37.9498 32.3025C37.0488 32.4418 36.1478 32.4964 35.2226 32.4964C34.3034 32.4964 33.4024 32.4418 32.4953 32.3025C31.3645 32.1449 30.2578 31.9389 29.1089 31.9389C26.2788 31.9389 24.6642 34.284 24.6642 36.9442C24.6642 42.2647 29.5261 43.0828 33.7591 43.0828H36.6739C40.925 43.0828 45.7809 42.2708 45.7809 36.9442ZM40.786 33.6053C39.2258 33.6053 38.5666 35.6777 38.5666 36.9442C38.5666 38.2107 39.2258 40.2832 40.786 40.2832C42.3461 40.2832 43.0053 38.2107 43.0053 36.9442C43.0053 35.6777 42.3461 33.6053 40.786 33.6053Z" fill="#69CC8E"/>
</svg>
