<svg width="94" height="85" viewBox="0 0 94 85" fill="none" xmlns="http://www.w3.org/2000/svg">
<ellipse cx="41.3144" cy="39.0725" rx="41.3144" ry="39.0725" fill="#9B8EFF"/>
<ellipse cx="40.9943" cy="39.3927" rx="27.5429" ry="24.6605" fill="#1C1A39"/>
<rect x="69.5625" y="49.9617" width="30.9302" height="20.1678" transform="rotate(38.502 69.5625 49.9617)" fill="#9B8EFF"/>
<rect x="21.1377" y="24.3402" width="30.9652" height="30.105" fill="#1C1A39"/>
<path d="M37.3308 43.0171C37.3308 44.4918 36.5633 46.9049 34.7466 46.9049C32.93 46.9049 32.1625 44.4918 32.1625 43.0171C32.1625 41.5424 32.93 39.1293 34.7466 39.1293C36.5633 39.1293 37.3308 41.5424 37.3308 43.0171V43.0171ZM58.0249 39.4539C58.0249 41.7047 57.7996 44.0896 56.7927 46.157C54.1241 51.5617 46.7871 51.4347 41.5344 51.4347C36.1971 51.4347 28.4236 51.6252 25.6494 46.157C24.6214 44.1107 24.2271 41.7047 24.2271 39.4539C24.2271 36.4975 25.2058 33.7033 27.1492 31.4384C26.783 30.3236 26.607 29.1523 26.607 27.9951C26.607 26.4781 26.952 25.7161 27.635 24.3402C30.8247 24.3402 32.8666 24.9752 35.2958 26.8803C37.3378 26.3935 39.4361 26.1747 41.5414 26.1747C43.4425 26.1747 45.3577 26.3794 47.2025 26.8239C49.5966 24.94 51.6385 24.3402 54.793 24.3402C55.483 25.7161 55.821 26.4781 55.821 27.9951C55.821 29.1523 55.6379 30.3024 55.2788 31.3961C57.2152 33.6822 58.0249 36.4975 58.0249 39.4539V39.4539ZM53.4974 43.0171C53.4974 39.9196 51.6174 37.1889 48.3221 37.1889C46.9913 37.1889 45.7169 37.4288 44.379 37.6123C43.3299 37.7746 42.2807 37.8381 41.2034 37.8381C40.1332 37.8381 39.084 37.7746 38.0278 37.6123C36.7111 37.4288 35.4226 37.1889 34.0848 37.1889C30.7895 37.1889 28.9095 39.9196 28.9095 43.0171C28.9095 49.2121 34.5706 50.1647 39.4995 50.1647H42.8933C47.8433 50.1647 53.4974 49.2192 53.4974 43.0171V43.0171ZM47.6814 39.1293C45.8647 39.1293 45.0972 41.5424 45.0972 43.0171C45.0972 44.4918 45.8647 46.9049 47.6814 46.9049C49.498 46.9049 50.2655 44.4918 50.2655 43.0171C50.2655 41.5424 49.498 39.1293 47.6814 39.1293Z" fill="#69CC8E"/>
</svg>
