<svg width="31" height="31" viewBox="0 0 31 31" fill="none" xmlns="http://www.w3.org/2000/svg">
<path d="M23.2465 2.22444C21.7776 2.22444 20.3689 2.81128 19.3303 3.85586C18.2917 4.90044 17.7082 6.31719 17.7082 7.79445C17.7082 9.2717 18.2917 10.6885 19.3303 11.733C20.3689 12.7776 21.7776 13.3645 23.2465 13.3645C23.8974 13.3645 24.4929 13.2509 25.084 13.0349C25.2217 12.9803 25.3689 12.9541 25.5169 12.9577C25.6649 12.9614 25.8106 12.9948 25.9455 13.0561C26.0804 13.1173 26.2017 13.2052 26.3022 13.3144C26.4028 13.4237 26.4805 13.5521 26.5308 13.692C26.5812 13.832 26.6031 13.9807 26.5953 14.1294C26.5875 14.278 26.5502 14.4236 26.4854 14.5575C26.4207 14.6914 26.33 14.8108 26.2186 14.9088C26.1072 15.0068 25.9773 15.0813 25.8368 15.128C25.0071 15.4342 24.1303 15.591 23.2465 15.5911C21.7136 15.5907 20.2153 15.1332 18.941 14.2764C17.6667 13.4196 16.6735 12.2021 16.0872 10.7778C15.5008 9.3534 15.3475 7.78616 15.6466 6.27418C15.9458 4.76219 16.6839 3.37336 17.7678 2.28327C18.8517 1.19318 20.2326 0.450766 21.736 0.149902C23.2393 -0.150963 24.7976 0.00322768 26.2139 0.592979C27.6301 1.18273 28.8407 2.18156 29.6926 3.46319C30.5444 4.74482 30.9993 6.25171 30.9998 7.79333C31.0005 8.43894 30.8152 9.07092 30.4663 9.61282C30.1173 10.1547 29.6197 10.5833 29.0337 10.8467C28.4476 11.11 27.7982 11.197 27.164 11.0969C26.5298 10.9968 25.9381 10.714 25.4604 10.2827C25.0125 10.6856 24.4642 10.9587 23.8742 11.0728C23.2841 11.187 22.6742 11.138 22.1096 10.9311C21.5451 10.7241 21.0469 10.367 20.6682 9.89775C20.2895 9.42849 20.0445 8.86469 19.9594 8.26644C19.8742 7.66819 19.952 7.0579 20.1845 6.50062C20.417 5.94333 20.7955 5.45994 21.2797 5.10196C21.7638 4.74398 22.3355 4.52482 22.9337 4.46785C23.5319 4.41087 24.1343 4.51821 24.6767 4.77843C24.8305 4.62024 25.0279 4.51196 25.2434 4.46751C25.4589 4.42306 25.6828 4.44447 25.8861 4.529C26.0894 4.61352 26.2629 4.75729 26.3844 4.94182C26.5058 5.12634 26.5695 5.34318 26.5674 5.56444V7.79111C26.5668 7.93761 26.5949 8.08278 26.6501 8.21835C26.7053 8.35392 26.7866 8.47723 26.8892 8.58123C26.9917 8.68524 27.1137 8.7679 27.248 8.8245C27.3824 8.8811 27.5265 8.91054 27.6722 8.91112C27.8178 8.91171 27.9622 8.88343 28.097 8.82791C28.2318 8.77239 28.3544 8.69071 28.4578 8.58753C28.6666 8.37916 28.7846 8.09588 28.7858 7.80001V7.79556C28.7861 7.06387 28.643 6.33929 28.3647 5.66324C28.0865 4.98719 27.6784 4.37292 27.164 3.85553C26.6496 3.33815 26.0388 2.92779 25.3666 2.64792C24.6944 2.36805 23.974 2.22415 23.2465 2.22444ZM22.1395 7.79556C22.1395 8.09084 22.2561 8.37402 22.4637 8.58281C22.6713 8.7916 22.9529 8.90889 23.2465 8.90889C23.54 8.90889 23.8216 8.7916 24.0292 8.58281C24.2368 8.37402 24.3534 8.09084 24.3534 7.79556C24.3534 7.50029 24.2368 7.21711 24.0292 7.00832C23.8216 6.79953 23.54 6.68223 23.2465 6.68223C22.9529 6.68223 22.6713 6.79953 22.4637 7.00832C22.2561 7.21711 22.1395 7.50029 22.1395 7.79556Z" fill="#69CC8E"/>
<path d="M5.53492 2.22885H14.962C13.5327 4.3731 12.9813 6.98944 13.423 9.53248C13.8646 12.0755 15.2651 14.349 17.3325 15.879C19.3999 17.4091 21.9747 18.0775 24.5201 17.7451C27.0656 17.4127 29.3852 16.1051 30.9956 14.0948V18.9266C30.9956 20.403 30.4124 21.8189 29.3744 22.8628C28.3364 23.9068 26.9286 24.4933 25.4606 24.4933H17.021L10.2396 30.4608C9.92596 30.7365 9.54002 30.9156 9.12787 30.9767C8.71573 31.0378 8.29482 30.9782 7.91542 30.8052C7.53603 30.6321 7.21419 30.3529 6.98836 30.0008C6.76253 29.6487 6.64225 29.2387 6.64191 28.8197V24.4933H5.53492C4.06735 24.4933 2.65986 23.9071 1.62192 22.8636C0.583988 21.8202 0.000587028 20.4048 0 18.9288V7.79552C0 6.31915 0.583142 4.90324 1.62114 3.85929C2.65914 2.81534 4.06697 2.22885 5.53492 2.22885Z" fill="#69CC8E"/>
</svg>
