<svg width="213" height="40" viewBox="0 0 213 40" fill="none" xmlns="http://www.w3.org/2000/svg">
<path d="M0.233581 38V3.316H9.24958L25.7636 24.522H25.8556V3.316H34.8716V38H25.8556L9.34158 16.748H9.24958V38H0.233581ZM67.8751 14.402V38H59.5031V35.378H59.4111C58.7364 36.482 57.8164 37.31 56.6511 37.862C55.4858 38.3833 54.2744 38.6747 53.0171 38.736C52.8944 38.7667 52.7718 38.782 52.6491 38.782C52.5264 38.782 52.4038 38.782 52.2811 38.782C48.7851 38.782 45.9178 37.54 43.6791 35.056C41.4711 32.5413 40.3671 29.5973 40.3671 26.224C40.3671 22.8507 41.4558 19.922 43.6331 17.438C45.8411 14.9233 48.6931 13.666 52.1891 13.666C52.3424 13.666 52.4958 13.666 52.6491 13.666C52.8024 13.666 52.9558 13.6813 53.1091 13.712C54.3051 13.804 55.4704 14.1107 56.6051 14.632C57.7704 15.1227 58.7364 15.828 59.5031 16.748V14.402H67.8751ZM54.3971 20.888C52.7104 20.9187 51.3918 21.4707 50.4411 22.544C49.4904 23.5867 49.0151 24.8287 49.0151 26.27C49.0151 27.7727 49.4904 29.03 50.4411 30.042C51.3918 31.054 52.7104 31.56 54.3971 31.56C56.1144 31.56 57.4331 31.054 58.3531 30.042C59.3038 29.03 59.7791 27.7727 59.7791 26.27C59.7791 24.8287 59.3038 23.5867 58.3531 22.544C57.4331 21.4707 56.1144 20.934 54.3971 20.934V20.888ZM80.8586 14.402L86.5166 26.5L92.1286 14.402H101.513L89.1846 38H83.8486L71.4746 14.402H80.8586ZM113.457 14.402V38H105.085V14.402H113.457ZM109.271 0.647998C110.559 0.678665 111.663 1.154 112.583 2.074C113.503 2.994 113.963 4.098 113.963 5.386C113.963 6.674 113.503 7.778 112.583 8.698C111.663 9.618 110.559 10.078 109.271 10.078C107.983 10.078 106.879 9.618 105.959 8.698C105.039 7.778 104.579 6.674 104.579 5.386C104.579 4.098 105.039 2.994 105.959 2.074C106.879 1.154 107.983 0.693998 109.271 0.693998V0.647998ZM120.144 19.784H133.3V26.684H120.144V19.784ZM157.361 18.634H175.255C175.225 21.1793 175.01 23.5713 174.611 25.81C174.213 28.018 173.247 30.2107 171.713 32.388C170.027 34.7493 167.941 36.4667 165.457 37.54C163.004 38.6133 160.321 39.15 157.407 39.15C151.949 39.15 147.502 37.4787 144.067 34.136C140.633 30.7627 138.915 26.3467 138.915 20.888C138.915 15.2453 140.648 10.722 144.113 7.318C147.609 3.914 152.148 2.212 157.729 2.212C161.287 2.212 164.399 3.02466 167.067 4.65C169.766 6.24467 171.867 8.66733 173.369 11.918L164.813 15.46C164.2 13.8347 163.249 12.516 161.961 11.504C160.673 10.492 159.125 9.986 157.315 9.986C154.525 9.986 152.363 11.0287 150.829 13.114C149.327 15.1993 148.499 17.484 148.345 19.968C148.315 20.1213 148.299 20.29 148.299 20.474C148.299 20.6273 148.299 20.7807 148.299 20.934C148.299 20.9647 148.299 21.0107 148.299 21.072C148.299 21.1027 148.299 21.1487 148.299 21.21C148.361 23.8473 149.173 26.27 150.737 28.478C152.301 30.686 154.54 31.79 157.453 31.79C159.416 31.79 161.072 31.284 162.421 30.272C163.771 29.26 164.537 27.7573 164.721 25.764L157.361 25.718V18.634ZM189.574 14.402V38H181.202V14.402H189.574ZM185.388 0.647998C186.676 0.678665 187.78 1.154 188.7 2.074C189.62 2.994 190.08 4.098 190.08 5.386C190.08 6.674 189.62 7.778 188.7 8.698C187.78 9.618 186.676 10.078 185.388 10.078C184.1 10.078 182.996 9.618 182.076 8.698C181.156 7.778 180.696 6.674 180.696 5.386C180.696 4.098 181.156 2.994 182.076 2.074C182.996 1.154 184.1 0.693998 185.388 0.693998V0.647998ZM208.237 21.302V38H199.865V21.302H197.151V14.402H199.865V7.318H208.237V14.402H212.975V21.302H208.237Z" fill="white"/>
</svg>
