<svg width="296" height="54" viewBox="0 0 296 54" fill="none" xmlns="http://www.w3.org/2000/svg">
<path d="M0.846 52V3.744H13.39L36.366 33.248H36.494V3.744H49.038V52H36.494L13.518 22.432H13.39V52H0.846ZM94.869 19.168V52H83.221V48.352H83.093C82.1543 49.888 80.8743 51.04 79.253 51.808C77.6317 52.5333 75.9463 52.9387 74.197 53.024C74.0263 53.0667 73.8557 53.088 73.685 53.088C73.5143 53.088 73.3437 53.088 73.173 53.088C68.309 53.088 64.3197 51.36 61.205 47.904C58.133 44.4053 56.597 40.3093 56.597 35.616C56.597 30.9227 58.1117 26.848 61.141 23.392C64.213 19.8933 68.181 18.144 73.045 18.144C73.2583 18.144 73.4717 18.144 73.685 18.144C73.8983 18.144 74.1117 18.1653 74.325 18.208C75.989 18.336 77.6103 18.7627 79.189 19.488C80.8103 20.1707 82.1543 21.152 83.221 22.432V19.168H94.869ZM76.117 28.192C73.7703 28.2347 71.9357 29.0027 70.613 30.496C69.2903 31.9467 68.629 33.6747 68.629 35.68C68.629 37.7707 69.2903 39.52 70.613 40.928C71.9357 42.336 73.7703 43.04 76.117 43.04C78.5063 43.04 80.341 42.336 81.621 40.928C82.9437 39.52 83.605 37.7707 83.605 35.68C83.605 33.6747 82.9437 31.9467 81.621 30.496C80.341 29.0027 78.5063 28.256 76.117 28.256V28.192ZM112.846 19.168L120.718 36L128.526 19.168H141.582L124.43 52H117.006L99.79 19.168H112.846ZM158.113 19.168V52H146.465V19.168H158.113ZM152.289 0.0319977C154.081 0.0746638 155.617 0.735998 156.897 2.016C158.177 3.296 158.817 4.832 158.817 6.624C158.817 8.416 158.177 9.952 156.897 11.232C155.617 12.512 154.081 13.152 152.289 13.152C150.497 13.152 148.961 12.512 147.681 11.232C146.401 9.952 145.761 8.416 145.761 6.624C145.761 4.832 146.401 3.296 147.681 2.016C148.961 0.735998 150.497 0.0959969 152.289 0.0959969V0.0319977ZM167.33 26.656H185.634V36.256H167.33V26.656ZM218.328 25.056H243.224C243.181 28.5973 242.883 31.9253 242.328 35.04C241.773 38.112 240.429 41.1627 238.296 44.192C235.949 47.4773 233.048 49.8667 229.592 51.36C226.179 52.8533 222.445 53.6 218.392 53.6C210.797 53.6 204.611 51.2747 199.832 46.624C195.053 41.9307 192.664 35.7867 192.664 28.192C192.664 20.3413 195.075 14.048 199.896 9.312C204.76 4.576 211.075 2.208 218.84 2.208C223.789 2.208 228.12 3.33866 231.832 5.6C235.587 7.81866 238.509 11.1893 240.6 15.712L228.696 20.64C227.843 18.3787 226.52 16.544 224.728 15.136C222.936 13.728 220.781 13.024 218.264 13.024C214.381 13.024 211.373 14.4747 209.24 17.376C207.149 20.2773 205.997 23.456 205.784 26.912C205.741 27.1253 205.72 27.36 205.72 27.616C205.72 27.8293 205.72 28.0427 205.72 28.256C205.72 28.2987 205.72 28.3627 205.72 28.448C205.72 28.4907 205.72 28.5547 205.72 28.64C205.805 32.3093 206.936 35.68 209.112 38.752C211.288 41.824 214.403 43.36 218.456 43.36C221.187 43.36 223.491 42.656 225.368 41.248C227.245 39.84 228.312 37.7493 228.568 34.976L218.328 34.912V25.056ZM262.363 19.168V52H250.715V19.168H262.363ZM256.539 0.0319977C258.331 0.0746638 259.867 0.735998 261.147 2.016C262.427 3.296 263.067 4.832 263.067 6.624C263.067 8.416 262.427 9.952 261.147 11.232C259.867 12.512 258.331 13.152 256.539 13.152C254.747 13.152 253.211 12.512 251.931 11.232C250.651 9.952 250.011 8.416 250.011 6.624C250.011 4.832 250.651 3.296 251.931 2.016C253.211 0.735998 254.747 0.0959969 256.539 0.0959969V0.0319977ZM288.764 28.768V52H277.116V28.768H273.34V19.168H277.116V9.312H288.764V19.168H295.356V28.768H288.764Z" fill="white"/>
</svg>
