<svg width="14" height="12" viewBox="0 0 14 12" fill="none" xmlns="http://www.w3.org/2000/svg">
<path fill-rule="evenodd" clip-rule="evenodd" d="M1.3125 10.6875C1.3125 10.791 1.4105 10.875 1.53125 10.875H3.5V9.9375C3.5 9.78831 3.56914 9.64524 3.69221 9.53975C3.81528 9.43426 3.9822 9.375 4.15625 9.375H6.34375C6.5178 9.375 6.68472 9.43426 6.80779 9.53975C6.93086 9.64524 7 9.78831 7 9.9375V10.875H8.96875C9.02677 10.875 9.08241 10.8552 9.12343 10.8201C9.16445 10.7849 9.1875 10.7372 9.1875 10.6875V1.3125C9.1875 1.26277 9.16445 1.21508 9.12343 1.17992C9.08241 1.14475 9.02677 1.125 8.96875 1.125H1.53125C1.47323 1.125 1.41759 1.14475 1.37657 1.17992C1.33555 1.21508 1.3125 1.26277 1.3125 1.3125V10.6875ZM1.53125 12C1.12514 12 0.735658 11.8617 0.448493 11.6156C0.161328 11.3694 0 11.0356 0 10.6875L0 1.3125C0 0.588 0.686 0 1.53125 0H8.96875C9.814 0 10.5 0.588 10.5 1.3125V10.6875C10.5 10.7512 10.4948 10.8135 10.4843 10.875H12.4688C12.5268 10.875 12.5824 10.8552 12.6234 10.8201C12.6645 10.7849 12.6875 10.7372 12.6875 10.6875V6.21375C12.6875 6.18291 12.6787 6.15253 12.6617 6.12532C12.6448 6.09811 12.6203 6.0749 12.5904 6.05775L11.6672 5.5305C11.5945 5.48992 11.5319 5.43738 11.483 5.37591C11.4341 5.31444 11.3999 5.24528 11.3825 5.17242C11.365 5.09955 11.3645 5.02444 11.3811 4.95143C11.3977 4.87841 11.4311 4.80895 11.4792 4.74705C11.5274 4.68515 11.5893 4.63206 11.6616 4.59084C11.7338 4.54961 11.8149 4.52108 11.9001 4.50689C11.9853 4.49271 12.0729 4.49314 12.1579 4.50818C12.2429 4.52322 12.3236 4.55256 12.3953 4.5945L13.3184 5.12175C13.7445 5.3655 14 5.775 14 6.21375V10.6875C14 11.0356 13.8387 11.3694 13.5515 11.6156C13.2643 11.8617 12.8749 12 12.4688 12H9.40625C9.34804 12.0001 9.29007 11.9935 9.23388 11.9805C9.14725 11.9932 9.05888 12 8.96875 12H6.34375C6.1697 12 6.00278 11.9407 5.87971 11.8352C5.75664 11.7298 5.6875 11.5867 5.6875 11.4375V10.5H4.8125V11.4375C4.8125 11.5867 4.74336 11.7298 4.62029 11.8352C4.49722 11.9407 4.3303 12 4.15625 12H1.53125ZM2.625 2.8125C2.625 2.66332 2.69414 2.52024 2.81721 2.41475C2.94028 2.30926 3.1072 2.25 3.28125 2.25H3.71875C3.8928 2.25 4.05972 2.30926 4.18279 2.41475C4.30586 2.52024 4.375 2.66332 4.375 2.8125C4.375 2.96168 4.30586 3.10476 4.18279 3.21025C4.05972 3.31574 3.8928 3.375 3.71875 3.375H3.28125C3.1072 3.375 2.94028 3.31574 2.81721 3.21025C2.69414 3.10476 2.625 2.96168 2.625 2.8125ZM3.28125 4.5C3.1072 4.5 2.94028 4.55926 2.81721 4.66475C2.69414 4.77024 2.625 4.91332 2.625 5.0625C2.625 5.21168 2.69414 5.35476 2.81721 5.46025C2.94028 5.56574 3.1072 5.625 3.28125 5.625H3.71875C3.8928 5.625 4.05972 5.56574 4.18279 5.46025C4.30586 5.35476 4.375 5.21168 4.375 5.0625C4.375 4.91332 4.30586 4.77024 4.18279 4.66475C4.05972 4.55926 3.8928 4.5 3.71875 4.5H3.28125ZM2.625 7.3125C2.625 7.16332 2.69414 7.02024 2.81721 6.91475C2.94028 6.80926 3.1072 6.75 3.28125 6.75H3.71875C3.8928 6.75 4.05972 6.80926 4.18279 6.91475C4.30586 7.02024 4.375 7.16332 4.375 7.3125C4.375 7.46168 4.30586 7.60476 4.18279 7.71025C4.05972 7.81574 3.8928 7.875 3.71875 7.875H3.28125C3.1072 7.875 2.94028 7.81574 2.81721 7.71025C2.69414 7.60476 2.625 7.46168 2.625 7.3125ZM6.78125 6.75C6.6072 6.75 6.44028 6.80926 6.31721 6.91475C6.19414 7.02024 6.125 7.16332 6.125 7.3125C6.125 7.46168 6.19414 7.60476 6.31721 7.71025C6.44028 7.81574 6.6072 7.875 6.78125 7.875H7.21875C7.3928 7.875 7.55972 7.81574 7.68279 7.71025C7.80586 7.60476 7.875 7.46168 7.875 7.3125C7.875 7.16332 7.80586 7.02024 7.68279 6.91475C7.55972 6.80926 7.3928 6.75 7.21875 6.75H6.78125ZM6.125 5.0625C6.125 4.91332 6.19414 4.77024 6.31721 4.66475C6.44028 4.55926 6.6072 4.5 6.78125 4.5H7.21875C7.3928 4.5 7.55972 4.55926 7.68279 4.66475C7.80586 4.77024 7.875 4.91332 7.875 5.0625C7.875 5.21168 7.80586 5.35476 7.68279 5.46025C7.55972 5.56574 7.3928 5.625 7.21875 5.625H6.78125C6.6072 5.625 6.44028 5.56574 6.31721 5.46025C6.19414 5.35476 6.125 5.21168 6.125 5.0625ZM6.78125 2.25C6.6072 2.25 6.44028 2.30926 6.31721 2.41475C6.19414 2.52024 6.125 2.66332 6.125 2.8125C6.125 2.96168 6.19414 3.10476 6.31721 3.21025C6.44028 3.31574 6.6072 3.375 6.78125 3.375H7.21875C7.3928 3.375 7.55972 3.31574 7.68279 3.21025C7.80586 3.10476 7.875 2.96168 7.875 2.8125C7.875 2.66332 7.80586 2.52024 7.68279 2.41475C7.55972 2.30926 7.3928 2.25 7.21875 2.25H6.78125Z" fill="#ADADB5"/>
</svg>
