<svg width="14" height="14" viewBox="0 0 14 14" fill="none" xmlns="http://www.w3.org/2000/svg">
<path d="M6.89253 2.98438H6.14097C6.07222 2.98438 6.01597 3.04063 6.01597 3.10938V7.41094C6.01597 7.45156 6.03472 7.48906 6.06753 7.5125L8.65035 9.39844C8.7066 9.43906 8.78472 9.42813 8.82535 9.37188L9.27222 8.7625C9.31441 8.70469 9.30191 8.62656 9.24566 8.5875L7.01753 6.97656V3.10938C7.01753 3.04063 6.96128 2.98438 6.89253 2.98438ZM10.3269 4.15938L12.7769 4.75781C12.855 4.77656 12.9316 4.71719 12.9316 4.6375L12.9441 2.11406C12.9441 2.00938 12.8238 1.95 12.7425 2.01563L10.28 3.93906C10.2614 3.95346 10.2473 3.97282 10.2392 3.99491C10.2311 4.017 10.2294 4.04093 10.2343 4.06395C10.2392 4.08696 10.2504 4.10813 10.2668 4.12501C10.2832 4.14189 10.304 4.1538 10.3269 4.15938ZM12.9472 8.86406L12.0613 8.55938C12.0304 8.54879 11.9966 8.55071 11.9671 8.56472C11.9376 8.57874 11.9148 8.60374 11.9035 8.63438C11.8738 8.71406 11.8425 8.79219 11.8097 8.87031C11.5316 9.52813 11.1332 10.1203 10.6238 10.6281C10.1201 11.1334 9.5231 11.5362 8.86597 11.8141C8.18523 12.1019 7.45349 12.2496 6.71441 12.2484C5.96754 12.2484 5.2441 12.1031 4.56285 11.8141C3.90572 11.5362 3.30875 11.1334 2.80503 10.6281C2.29722 10.1203 1.89878 9.52813 1.6191 8.87031C1.33287 8.18919 1.18623 7.45757 1.18785 6.71875C1.18785 5.97188 1.33316 5.24688 1.62222 4.56563C1.90035 3.90781 2.29878 3.31563 2.80816 2.80781C3.31188 2.30253 3.90885 1.89978 4.56597 1.62188C5.2441 1.33281 5.9691 1.1875 6.71597 1.1875C7.46285 1.1875 8.18629 1.33281 8.86753 1.62188C9.52466 1.89978 10.1216 2.30253 10.6253 2.80781C10.7847 2.96875 10.9347 3.13594 11.0722 3.3125L12.0066 2.58125C10.7769 1.00938 8.86285 -0.00156069 6.71285 1.80866e-06C2.9691 0.00156431 -0.0371529 3.04219 0.00034705 6.7875C0.0378471 10.4672 3.03003 13.4375 6.71597 13.4375C9.61441 13.4375 12.0832 11.6 13.0238 9.02656C13.0472 8.96094 13.0128 8.8875 12.9472 8.86406Z" fill="#ADADB5"/>
</svg>
