<svg width="23" height="25" viewBox="0 0 23 25" fill="none" xmlns="http://www.w3.org/2000/svg">
<path d="M19.9753 16.4538V7.49625C19.9692 5.48875 18.6722 2.5 15.1236 2.5V0L10.2841 3.75L15.1236 7.5V5C17.3365 5 17.5446 6.92375 17.5555 7.5V16.4538C15.8133 16.9963 14.5308 18.65 14.5308 20.625C14.5308 23.0375 16.4303 25 18.7654 25C21.1005 25 23 23.0375 23 20.625C23 18.65 21.7175 16.9963 19.9753 16.4538ZM18.7654 22.5C17.7648 22.5 16.9506 21.6588 16.9506 20.625C16.9506 19.5913 17.7648 18.75 18.7654 18.75C19.766 18.75 20.5802 19.5913 20.5802 20.625C20.5802 21.6588 19.766 22.5 18.7654 22.5ZM8.46923 4.375C8.46923 1.9625 6.5697 0 4.23461 0C1.89953 0 0 1.9625 0 4.375C0 6.35 1.28248 8.00375 3.02472 8.54625V16.4538C1.28248 16.9963 0 18.65 0 20.625C0 23.0375 1.89953 25 4.23461 25C6.5697 25 8.46923 23.0375 8.46923 20.625C8.46923 18.65 7.18674 16.9963 5.4445 16.4538V8.54625C7.18674 8.00375 8.46923 6.35 8.46923 4.375ZM2.41978 4.375C2.41978 3.34125 3.23403 2.5 4.23461 2.5C5.23519 2.5 6.04945 3.34125 6.04945 4.375C6.04945 5.40875 5.23519 6.25 4.23461 6.25C3.23403 6.25 2.41978 5.40875 2.41978 4.375ZM6.04945 20.625C6.04945 21.6588 5.23519 22.5 4.23461 22.5C3.23403 22.5 2.41978 21.6588 2.41978 20.625C2.41978 19.5913 3.23403 18.75 4.23461 18.75C5.23519 18.75 6.04945 19.5913 6.04945 20.625Z" fill="white"/>
</svg>
