<svg width="24" height="31" viewBox="0 0 24 31" fill="none" xmlns="http://www.w3.org/2000/svg">
<path fill-rule="evenodd" clip-rule="evenodd" d="M0 4.92064C0 3.6156 0.526784 2.36402 1.46447 1.44122C2.40215 0.518422 3.67392 0 5 0H22.5C22.8978 0 23.2794 0.155527 23.5607 0.432366C23.842 0.709206 24 1.08468 24 1.47619V26.0794C24 26.4709 23.842 26.8463 23.5607 27.1232C23.2794 27.4 22.8978 27.5556 22.5 27.5556H17.5C17.1022 27.5556 16.7206 27.4 16.4393 27.1232C16.158 26.8463 16 26.4709 16 26.0794C16 25.6879 16.158 25.3124 16.4393 25.0355C16.7206 24.7587 17.1022 24.6032 17.5 24.6032H21V20.6667H5C4.60616 20.6667 4.22111 20.7812 3.89313 20.9958C3.56514 21.2103 3.30883 21.5154 3.15632 21.8727C3.00382 22.2301 2.96191 22.6238 3.03586 23.0045C3.1098 23.3852 3.29632 23.7359 3.572 24.0127C3.85048 24.2925 4.00461 24.6697 4.00048 25.0613C3.99635 25.453 3.83431 25.827 3.55 26.101C3.26569 26.3751 2.8824 26.5268 2.48444 26.5227C2.08649 26.5186 1.70648 26.3592 1.428 26.0794C0.511424 25.1599 -0.00141454 23.9229 0 22.6349V4.92064ZM21 2.95238V17.7143H5C4.288 17.7143 3.612 17.8599 3 18.1237V4.92064C3 4.39862 3.21071 3.89799 3.58579 3.52887C3.96086 3.15975 4.46957 2.95238 5 2.95238H21ZM6 24.1111V30.5079C6 30.5993 6.02586 30.6889 6.07467 30.7666C6.12349 30.8444 6.19334 30.9072 6.27639 30.9481C6.35944 30.9889 6.45242 31.0062 6.5449 30.998C6.63738 30.9898 6.72571 30.9564 6.8 30.9016L9.7 28.7621C9.78655 28.6982 9.89181 28.6637 10 28.6637C10.1082 28.6637 10.2135 28.6982 10.3 28.7621L13.2 30.9016C13.2743 30.9564 13.3626 30.9898 13.4551 30.998C13.5476 31.0062 13.6406 30.9889 13.7236 30.9481C13.8067 30.9072 13.8765 30.8444 13.9253 30.7666C13.9741 30.6889 14 30.5993 14 30.5079V24.1111C14 23.9806 13.9473 23.8555 13.8536 23.7632C13.7598 23.6709 13.6326 23.619 13.5 23.619H10H6.5C6.36739 23.619 6.24021 23.6709 6.14645 23.7632C6.05268 23.8555 6 23.9806 6 24.1111Z" fill="#69CC8E"/>
</svg>
