<svg width="20" height="20" viewBox="0 0 20 20" fill="none" xmlns="http://www.w3.org/2000/svg">
<path d="M9.97658 0C12.7244 0 15.082 0.978091 17.0492 2.93427C19.0164 4.89045 20 7.2457 20 10C20 12.7543 19.0164 15.1095 17.0492 17.0657C15.082 19.0219 12.7244 20 9.97658 20C7.22873 20 4.879 19.0219 2.9274 17.0657C0.9758 15.1095 0 12.7543 0 10C0 7.2457 0.9758 4.89045 2.9274 2.93427C4.879 0.978091 7.22873 0 9.97658 0ZM10 18.0282C12.2014 18.0282 14.0827 17.2457 15.644 15.6808C17.2053 14.1158 17.9859 12.2222 17.9859 10C17.9859 7.77778 17.2053 5.88419 15.644 4.31925C14.0827 2.7543 12.2014 1.97183 10 1.97183C7.79859 1.97183 5.91725 2.7543 4.35597 4.31925C2.79469 5.88419 2.01405 7.77778 2.01405 10C2.01405 12.2222 2.79469 14.1158 4.35597 15.6808C5.91725 17.2457 7.79859 18.0282 10 18.0282ZM12.9742 10C12.9742 10.8451 12.6854 11.5571 12.1077 12.1362C11.5301 12.7152 10.8275 13.0047 10 13.0047C9.17252 13.0047 8.46214 12.7152 7.86885 12.1362C7.27557 11.5571 6.97892 10.8451 6.97892 10C6.97892 9.15493 7.27557 8.44288 7.86885 7.86385C8.46214 7.28482 9.17252 6.99531 10 6.99531C10.8275 6.99531 11.5301 7.28482 12.1077 7.86385C12.6854 8.44288 12.9742 9.15493 12.9742 10Z" fill="#69CC8E"/>
</svg>
