<svg width="17" height="25" viewBox="0 0 17 25" fill="none" xmlns="http://www.w3.org/2000/svg">
<path fill-rule="evenodd" clip-rule="evenodd" d="M2.06727e-06 3.96825C2.06727e-06 2.91581 0.373141 1.90647 1.03733 1.16227C1.70152 0.418083 2.60236 0 3.54167 0H15.9375C16.2193 0 16.4895 0.125425 16.6888 0.348682C16.8881 0.57194 17 0.874742 17 1.19048V21.0317C17 21.3475 16.8881 21.6503 16.6888 21.8735C16.4895 22.0968 16.2193 22.2222 15.9375 22.2222H12.3958C12.114 22.2222 11.8438 22.0968 11.6445 21.8735C11.4453 21.6503 11.3333 21.3475 11.3333 21.0317C11.3333 20.716 11.4453 20.4132 11.6445 20.19C11.8438 19.9667 12.114 19.8413 12.3958 19.8413H14.875V16.6667H3.54167C3.2627 16.6667 2.98996 16.759 2.75763 16.9321C2.52531 17.1051 2.34375 17.3511 2.23573 17.6393C2.1277 17.9275 2.09802 18.245 2.1504 18.552C2.20278 18.859 2.33489 19.1419 2.53017 19.3651C2.72742 19.5907 2.8366 19.8949 2.83368 20.2108C2.83075 20.5266 2.71597 20.8282 2.51459 21.0492C2.3132 21.2702 2.0417 21.3925 1.75982 21.3893C1.47793 21.386 1.20876 21.2574 1.0115 21.0317C0.36226 20.2903 -0.0009999 19.2927 2.06727e-06 18.254V3.96825ZM14.875 2.38095V14.2857H3.54167C3.03733 14.2857 2.5585 14.4032 2.125 14.6159V3.96825C2.125 3.54728 2.27426 3.14354 2.53993 2.84586C2.80561 2.54819 3.16595 2.38095 3.54167 2.38095H14.875ZM4.25 19.4444V24.6032C4.25 24.6769 4.26832 24.7491 4.3029 24.8118C4.33747 24.8745 4.38695 24.9251 4.44578 24.9581C4.50461 24.9911 4.57047 25.005 4.63597 24.9984C4.70148 24.9918 4.76405 24.9649 4.81667 24.9206L6.87083 23.1952C6.93214 23.1437 7.0067 23.1159 7.08333 23.1159C7.15997 23.1159 7.23453 23.1437 7.29583 23.1952L9.35 24.9206C9.40262 24.9649 9.46519 24.9918 9.53069 24.9984C9.5962 25.005 9.66206 24.9911 9.72089 24.9581C9.77972 24.9251 9.82919 24.8745 9.86377 24.8118C9.89835 24.7491 9.91667 24.6769 9.91667 24.6032V19.4444C9.91667 19.3392 9.87935 19.2383 9.81294 19.1638C9.74652 19.0894 9.65643 19.0476 9.5625 19.0476H7.08333H4.60417C4.51024 19.0476 4.42015 19.0894 4.35373 19.1638C4.28731 19.2383 4.25 19.3392 4.25 19.4444Z" fill="white"/>
</svg>
