<svg width="37" height="29" viewBox="0 0 37 29" fill="none" xmlns="http://www.w3.org/2000/svg">
<path d="M26.7185 11.8694H36.057C36.1699 11.8694 36.2803 11.9016 36.3755 11.9622C36.4707 12.0227 36.5467 12.1092 36.5945 12.2113C36.6424 12.3135 36.6601 12.4272 36.6457 12.5391C36.6312 12.651 36.5852 12.7564 36.513 12.8431L31.8438 18.4481C31.7881 18.515 31.7183 18.5687 31.6395 18.6056C31.5607 18.6425 31.4748 18.6616 31.3878 18.6616C31.3008 18.6616 31.2148 18.6425 31.136 18.6056C31.0572 18.5687 30.9875 18.515 30.9318 18.4481L26.2625 12.8431C26.1903 12.7564 26.1443 12.651 26.1299 12.5391C26.1154 12.4272 26.1332 12.3135 26.181 12.2113C26.2289 12.1092 26.3049 12.0227 26.4 11.9622C26.4952 11.9016 26.6057 11.8694 26.7185 11.8694V11.8694ZM0.593528 16.6194H9.93203C10.0449 16.6193 10.1553 16.5872 10.2505 16.5266C10.3457 16.466 10.4217 16.3796 10.4695 16.2774C10.5174 16.1753 10.5351 16.0616 10.5207 15.9497C10.5062 15.8378 10.4602 15.7323 10.388 15.6456L5.71878 10.0406C5.66305 9.97381 5.59333 9.92005 5.51453 9.88316C5.43573 9.84627 5.34979 9.82715 5.26278 9.82715C5.17577 9.82715 5.08983 9.84627 5.01103 9.88316C4.93223 9.92005 4.8625 9.97381 4.80678 10.0406L0.137528 15.6456C0.0653224 15.7323 0.0193098 15.8378 0.00487809 15.9497C-0.00955363 16.0616 0.00819287 16.1753 0.0560396 16.2774C0.103886 16.3796 0.179853 16.466 0.275043 16.5266C0.370233 16.5872 0.480707 16.6193 0.593528 16.6194V16.6194Z" fill="white"/>
<path fill-rule="evenodd" clip-rule="evenodd" d="M18.3253 2.36975C14.6393 2.36975 11.3428 4.04888 9.16496 6.6875C9.06771 6.81355 8.94611 6.91876 8.80738 6.99687C8.66866 7.07498 8.51564 7.1244 8.35744 7.14218C8.19923 7.15997 8.03906 7.14577 7.88646 7.10041C7.73385 7.05506 7.59192 6.97948 7.46911 6.87817C7.3463 6.77686 7.24511 6.65189 7.17157 6.5107C7.09802 6.3695 7.05362 6.21495 7.041 6.05625C7.02838 5.89755 7.0478 5.73793 7.09811 5.58688C7.14841 5.43584 7.22858 5.29645 7.33384 5.177C9.07279 3.07163 11.3799 1.51003 13.9807 0.677936C16.5815 -0.154157 19.3665 -0.221726 22.0046 0.483266C24.6427 1.18826 27.0228 2.63614 28.8618 4.65471C30.7008 6.67328 31.9213 9.17758 32.3782 11.8698H29.9628C29.4145 9.18792 27.9568 6.77774 25.8364 5.04672C23.7159 3.31571 21.0626 2.37009 18.3253 2.36975V2.36975ZM6.68784 16.6198C7.13745 18.8157 8.19917 20.8397 9.75034 22.4578C11.3015 24.076 13.2788 25.2222 15.4539 25.7642C17.6289 26.3061 19.9129 26.2217 22.042 25.5206C24.171 24.8194 26.0583 23.5303 27.4857 21.802C27.583 21.676 27.7046 21.5707 27.8433 21.4926C27.982 21.4145 28.135 21.3651 28.2932 21.3473C28.4514 21.3295 28.6116 21.3437 28.7642 21.3891C28.9168 21.4345 29.0587 21.51 29.1816 21.6113C29.3044 21.7126 29.4056 21.8376 29.4791 21.9788C29.5526 22.12 29.5971 22.2746 29.6097 22.4333C29.6223 22.592 29.6029 22.7516 29.5526 22.9026C29.5023 23.0537 29.4221 23.1931 29.3168 23.3125C27.5779 25.4179 25.2708 26.9795 22.67 27.8116C20.0692 28.6437 17.2841 28.7112 14.646 28.0062C12.008 27.3012 9.62786 25.8534 7.78886 23.8348C5.94986 21.8162 4.72934 19.3119 4.27246 16.6198H6.68784Z" fill="white"/>
</svg>
