<svg width="18" height="25" viewBox="0 0 18 25" fill="none" xmlns="http://www.w3.org/2000/svg">
<path d="M8.61444 0C4.71703 0 2.19266 1.59683 0.21078 4.44463C-0.148742 4.96123 -0.0379017 5.66953 0.463612 6.0498L2.56996 7.64692C3.07645 8.03096 3.79711 7.94116 4.19364 7.44438C5.41674 5.91211 6.32401 5.02988 8.23451 5.02988C9.73666 5.02988 11.5947 5.99663 11.5947 7.45327C11.5947 8.55444 10.6856 9.11997 9.20243 9.95151C7.47279 10.9212 5.18393 12.1281 5.18393 15.1471V15.625C5.18393 16.2722 5.70858 16.7969 6.3558 16.7969H9.89442C10.5416 16.7969 11.0663 16.2722 11.0663 15.625V15.3431C11.0663 13.2503 17.1829 13.1632 17.1829 7.5C17.1829 3.23516 12.759 0 8.61444 0ZM8.12514 18.2353C6.2601 18.2353 4.74276 19.7526 4.74276 21.6177C4.74276 23.4827 6.2601 25 8.12514 25C9.99018 25 11.5075 23.4827 11.5075 21.6176C11.5075 19.7526 9.99018 18.2353 8.12514 18.2353Z" fill="#69CC8E"/>
</svg>
