<svg width="18" height="20" viewBox="0 0 18 20" fill="none" xmlns="http://www.w3.org/2000/svg">
<path d="M14 2C12.07 2 10.5 3.57 10.5 5.5C10.5 7.054 11.525 8.359 12.93 8.815C12.784 9.747 12.383 10.515 11.7 11.138C9.754 12.911 6.173 13.073 4.5 13.045V6.837C5.94 6.403 7 5.08 7 3.5C7 1.57 5.43 0 3.5 0C1.57 0 0 1.57 0 3.5C0 5.08 1.06 6.403 2.5 6.837V13.163C1.06 13.597 0 14.92 0 16.5C0 18.43 1.57 20 3.5 20C5.43 20 7 18.43 7 16.5C7 15.949 6.86 15.435 6.633 14.971C8.693 14.785 11.29 14.214 13.042 12.621C14.139 11.624 14.773 10.357 14.946 8.853C16.415 8.438 17.5 7.1 17.5 5.5C17.5 3.57 15.93 2 14 2ZM2 3.5C2 2.673 2.673 2 3.5 2C4.327 2 5 2.673 5 3.5C5 4.327 4.327 5 3.5 5C2.673 5 2 4.327 2 3.5ZM3.5 18C2.673 18 2 17.327 2 16.5C2.0005 16.1056 2.15629 15.7273 2.43366 15.4469C2.71103 15.1666 3.08765 15.0067 3.482 15.002L3.612 15.012C3.80819 15.0194 4.00102 15.0653 4.17947 15.1472C4.35791 15.229 4.51849 15.3452 4.65202 15.4892C4.78555 15.6331 4.88942 15.8019 4.95771 15.986C5.02599 16.1701 5.05735 16.3658 5.05 16.562C5.04265 16.7582 4.99672 16.951 4.91485 17.1295C4.83297 17.3079 4.71675 17.4685 4.57282 17.602C4.42889 17.7355 4.26007 17.8394 4.07599 17.9077C3.89192 17.976 3.69619 18.0074 3.5 18ZM14 7C13.173 7 12.5 6.327 12.5 5.5C12.5 4.673 13.173 4 14 4C14.827 4 15.5 4.673 15.5 5.5C15.5 6.327 14.827 7 14 7Z" fill="#ADADB5"/>
</svg>
