<svg width="19" height="22" viewBox="0 0 19 22" fill="none" xmlns="http://www.w3.org/2000/svg">
<path d="M15.2 2.2C13.1046 2.2 11.4 3.927 11.4 6.05C11.4 7.7594 12.5129 9.1949 14.0383 9.6965C13.8798 10.7217 13.4444 11.5665 12.7029 12.2518C10.5901 14.2021 6.70211 14.3803 4.88571 14.3495V7.5207C6.44914 7.0433 7.6 5.588 7.6 3.85C7.6 1.727 5.89543 0 3.8 0C1.70457 0 0 1.727 0 3.85C0 5.588 1.15086 7.0433 2.71429 7.5207V14.4793C1.15086 14.9567 0 16.412 0 18.15C0 20.273 1.70457 22 3.8 22C5.89543 22 7.6 20.273 7.6 18.15C7.6 17.5439 7.448 16.9785 7.20154 16.4681C9.43812 16.2635 12.2577 15.6354 14.1599 13.8831C15.3509 12.7864 16.0393 11.3927 16.2271 9.7383C17.822 9.2818 19 7.81 19 6.05C19 3.927 17.2954 2.2 15.2 2.2ZM2.17143 3.85C2.17143 2.9403 2.90211 2.2 3.8 2.2C4.69789 2.2 5.42857 2.9403 5.42857 3.85C5.42857 4.7597 4.69789 5.5 3.8 5.5C2.90211 5.5 2.17143 4.7597 2.17143 3.85ZM3.8 19.8C2.90211 19.8 2.17143 19.0597 2.17143 18.15C2.17197 17.7162 2.34112 17.3 2.64226 16.9916C2.9434 16.6832 3.3523 16.5074 3.78046 16.5022L3.9216 16.5132C4.13461 16.5213 4.34397 16.5718 4.53771 16.6619C4.73145 16.7519 4.90578 16.8798 5.05076 17.0381C5.19574 17.1964 5.30851 17.3821 5.38265 17.5846C5.45679 17.7871 5.49084 18.0024 5.48286 18.2182C5.47487 18.434 5.42501 18.6461 5.33612 18.8424C5.24723 19.0387 5.12104 19.2153 4.96478 19.3622C4.80851 19.5091 4.62522 19.6234 4.42536 19.6985C4.22551 19.7736 4.01301 19.8081 3.8 19.8ZM15.2 7.7C14.3021 7.7 13.5714 6.9597 13.5714 6.05C13.5714 5.1403 14.3021 4.4 15.2 4.4C16.0979 4.4 16.8286 5.1403 16.8286 6.05C16.8286 6.9597 16.0979 7.7 15.2 7.7Z" fill="#9B8EFF"/>
</svg>
