<svg width="41" height="41" viewBox="0 0 41 41" fill="none" xmlns="http://www.w3.org/2000/svg">
<path d="M41 16.7341C40.3317 17.1098 39.7755 17.6567 39.3885 18.3185C39.0016 18.9804 38.7979 19.7333 38.7983 20.5C38.7983 22.1174 39.6859 23.5258 41 24.2659L39.5302 29.1981C38.7357 29.0615 37.9188 29.1501 37.1721 29.4539C36.4254 29.7578 35.7787 30.2647 35.3054 30.9173C34.8321 31.5699 34.551 32.342 34.4941 33.1461C34.4372 33.9503 34.6066 34.7543 34.9832 35.467L30.7561 38.7511C30.1965 38.2924 29.5304 37.9818 28.8193 37.848C28.1081 37.7141 27.3747 37.7614 26.6866 37.9854C25.9985 38.2094 25.3778 38.6029 24.8817 39.1297C24.3856 39.6565 24.03 40.2997 23.8477 41L17.1032 40.9836C16.9188 40.2867 16.5627 39.647 16.0675 39.1232C15.5722 38.5994 14.9535 38.208 14.268 37.985C13.5824 37.7619 12.8519 37.7142 12.1432 37.8463C11.4345 37.9783 10.7702 38.2859 10.2111 38.7409L5.98805 35.4302C6.35413 34.7203 6.51603 33.9228 6.45574 33.1265C6.39545 32.3301 6.11533 31.566 5.64657 30.9194C5.17781 30.2728 4.53879 29.769 3.80065 29.464C3.06252 29.159 2.25422 29.0648 1.46575 29.192L0 24.2412C0.655896 23.8616 1.2003 23.316 1.57851 22.6593C1.95671 22.0026 2.15538 21.2578 2.15455 20.5C2.15455 18.901 1.2915 17.507 0 16.7588L1.46575 11.808C2.25438 11.9356 3.06295 11.8418 3.80141 11.537C4.53987 11.2322 5.17922 10.7284 5.64826 10.0817C6.1173 9.43498 6.3976 8.67077 6.45796 7.87417C6.51831 7.07756 6.35635 6.27984 5.9901 5.56985L10.209 2.2591C10.7682 2.7141 11.4325 3.02169 12.1412 3.15374C12.8499 3.2858 13.5804 3.23811 14.2659 3.01504C14.9514 2.79197 15.5701 2.40063 16.0654 1.8768C16.5607 1.35296 16.9168 0.71334 17.1011 0.0163998L23.8497 0C24.032 0.700297 24.3876 1.34346 24.8837 1.87027C25.3799 2.39708 26.0006 2.7906 26.6887 3.01459C27.3768 3.23859 28.1102 3.28585 28.8213 3.15203C29.5325 3.01822 30.1986 2.70762 30.7582 2.24885L34.9812 5.535C34.6046 6.24776 34.4351 7.05177 34.492 7.85591C34.549 8.66005 34.83 9.43216 35.3034 10.0847C35.7767 10.7373 36.4233 11.2443 37.17 11.5481C37.9167 11.852 38.7336 11.9406 39.5281 11.8039L41 16.7321V16.7341ZM20.5 28.7C22.6748 28.7 24.7605 27.8361 26.2983 26.2983C27.8361 24.7605 28.7 22.6748 28.7 20.5C28.7 18.3252 27.8361 16.2395 26.2983 14.7017C24.7605 13.1639 22.6748 12.3 20.5 12.3C18.3252 12.3 16.2395 13.1639 14.7017 14.7017C13.1639 16.2395 12.3 18.3252 12.3 20.5C12.3 22.6748 13.1639 24.7605 14.7017 26.2983C16.2395 27.8361 18.3252 28.7 20.5 28.7Z" fill="#69CC8E"/>
</svg>
