<svg width="47" height="48" viewBox="0 0 47 48" fill="none" xmlns="http://www.w3.org/2000/svg">
<path d="M23.2745 0.00207113H23.4506C27.6947 0.00207113 31.6662 1.2044 35.068 3.2972L34.9638 3.2364C38.4448 5.32837 41.3456 8.3158 43.3858 11.9097L43.4445 12.0234C45.5072 15.6947 46.588 19.8693 46.5755 24.1173C46.5755 34.7206 39.9822 43.7312 30.8125 46.9832L30.6478 47.0342C30.4426 47.0983 30.2258 47.1116 30.0147 47.0731C29.8036 47.0346 29.6042 46.9454 29.4325 46.8125L29.4363 46.8145C29.3122 46.6995 29.2129 46.5586 29.1451 46.4011C29.0772 46.2436 29.0423 46.073 29.0425 45.9005V45.873V45.875L29.0577 43.4703C29.0678 41.93 29.0728 40.5217 29.0728 39.2455C29.143 38.4277 29.038 37.6038 28.7655 36.8328C28.4929 36.0618 28.0594 35.3627 27.4959 34.7853C28.5937 34.6761 29.6812 34.4761 30.7481 34.1871L30.6042 34.2204C31.6221 33.9316 32.6 33.5084 33.5138 32.9612L33.4551 32.9946C34.3877 32.4663 35.2171 31.7625 35.9009 30.9194L35.9122 30.9057C36.6349 29.9444 37.1745 28.8494 37.5024 27.6792L37.5194 27.6106C37.9373 26.1589 38.1471 24.6515 38.1422 23.1366L38.1403 22.8699V22.8836L38.1422 22.7424C38.1451 20.3916 37.2865 18.1273 35.74 16.4071L35.7457 16.413C36.0637 15.55 36.2473 14.5536 36.2473 13.5121C36.2488 12.2822 35.9877 11.0672 35.4825 9.95415L35.5033 10.0051C34.6614 9.84297 33.7914 9.96752 33.0235 10.3602L33.0462 10.3504C32.0497 10.7275 31.0911 11.2044 30.184 11.7743L30.2559 11.7312L29.1031 12.4843C27.3577 11.9665 25.353 11.6684 23.2821 11.6684C21.2111 11.6684 19.2064 11.9665 17.3059 12.5236L17.4592 12.4843C17.1361 12.2542 16.7064 11.9711 16.1701 11.6351C15.3976 11.1824 14.5926 10.7922 13.7622 10.468L13.6372 10.4249C12.8385 9.99413 11.9255 9.84668 11.0381 10.0051L11.0627 10.0012C10.5689 11.0993 10.3149 12.2967 10.3188 13.5082C10.3188 14.5497 10.5024 15.548 10.8394 16.4679L10.8204 16.411C9.24248 18.1676 8.384 20.4902 8.42577 22.8895V22.8817L8.42388 23.1366C8.42388 24.7234 8.65104 26.2572 9.07508 27.7008L9.04668 27.589C9.40446 28.8502 9.94775 29.9466 10.6557 30.9096L10.6387 30.8841C11.3023 31.7309 12.1165 32.438 13.0371 32.9671L13.0788 32.9887C13.8966 33.483 14.845 33.9007 15.8426 34.193L15.9297 34.2146C16.8118 34.4597 17.8681 34.6598 18.949 34.7716L19.0361 34.7794C18.2202 35.6189 17.6769 36.7408 17.552 37.9922L17.5501 38.0157C17.1287 38.2248 16.6844 38.3803 16.2269 38.4786L16.1871 38.4865C15.7025 38.5865 15.1478 38.6434 14.578 38.6434H14.4531H14.4588C13.742 38.6292 13.0459 38.3914 12.4617 37.9608L12.473 37.9687C11.778 37.4689 11.2066 36.8063 10.8053 36.0347L10.792 36.0053C10.4277 35.361 9.93147 34.8073 9.3382 34.3832L9.32117 34.3715C8.88062 34.0303 8.3824 33.7776 7.85219 33.6261L7.82191 33.6183L7.21614 33.5242C6.91213 33.5009 6.60703 33.5506 6.32454 33.6693L6.33779 33.6634C6.17625 33.7576 6.12577 33.8779 6.18635 34.0243C6.26017 34.193 6.35104 34.3381 6.46083 34.4656L6.45894 34.4637C6.57441 34.6049 6.70503 34.7284 6.84701 34.8363L6.85269 34.8402L7.0647 34.9972C7.60042 35.2874 8.04149 35.6915 8.37656 36.1799L8.38413 36.1916C8.74569 36.6565 9.06372 37.1821 9.31927 37.7451L9.3382 37.7921L9.64108 38.5139C9.89664 39.3024 10.3604 39.9614 10.9662 40.438L10.9757 40.4459C11.5436 40.9049 12.2288 41.2344 12.9766 41.3834L13.0069 41.3874C13.6315 41.5129 14.3585 41.5913 15.1005 41.607H15.1138C15.199 41.611 15.2974 41.611 15.3977 41.611C15.8918 41.611 16.3764 41.5698 16.8497 41.4893L16.7985 41.4972L17.4952 41.3717C17.4952 42.168 17.5002 43.0951 17.5103 44.1529C17.5204 45.2108 17.5255 45.7815 17.5255 45.8652V45.8927C17.5255 46.2555 17.374 46.5811 17.1317 46.8067H17.1298C16.9576 46.9408 16.757 47.0304 16.5447 47.0683C16.3324 47.1062 16.1144 47.0911 15.9088 47.0244L15.9183 47.0263C6.58767 43.7136 0 34.7029 0 24.0977C0 19.6493 1.15852 15.4813 3.18214 11.8998L3.12157 12.0136C5.1406 8.40695 8.02388 5.40128 11.4924 3.2874L11.6022 3.22659C15.0855 1.10173 19.0564 -0.0127322 23.0985 0.00010974H23.284H23.2745V0.00207113ZM8.81195 34.652C8.87252 34.5055 8.80185 34.38 8.59993 34.2754C8.39801 34.2126 8.26676 34.2335 8.20619 34.3381C8.14561 34.4846 8.21628 34.6101 8.4182 34.7147C8.59993 34.8402 8.73118 34.8193 8.81195 34.652ZM9.75277 35.7209C9.89412 35.6163 9.87392 35.4489 9.6922 35.2188C9.49028 35.0305 9.32874 34.9991 9.20759 35.1246C9.06624 35.2292 9.08643 35.3966 9.26816 35.6268C9.46882 35.8321 9.63036 35.8628 9.75277 35.7189V35.7209ZM10.6614 37.1331C10.8431 36.9867 10.8431 36.7879 10.6614 36.5368C10.4999 36.2649 10.3282 36.2021 10.1465 36.3485C9.96479 36.4532 9.96479 36.6415 10.1465 36.9134C10.3282 37.1854 10.4999 37.2586 10.6614 37.1331ZM11.9335 38.4531C12.0951 38.2857 12.0547 38.087 11.8124 37.8569C11.5701 37.6058 11.3681 37.5744 11.2066 37.7627C11.0249 37.9301 11.0653 38.1288 11.3278 38.359C11.5701 38.61 11.772 38.6388 11.9335 38.4453V38.4531ZM13.6618 39.2377C13.7224 39.0075 13.5912 38.8402 13.2681 38.7356C12.9652 38.6519 12.7734 38.7251 12.6926 38.9552C12.6118 39.1854 12.7431 39.3423 13.0864 39.426C13.3892 39.5528 13.5811 39.49 13.6618 39.2377ZM15.5719 39.3946C15.5719 39.1226 15.4002 39.0075 15.057 39.0494C14.7339 39.0494 14.5724 39.1644 14.5724 39.3946C14.5724 39.6666 14.744 39.7816 15.0873 39.7398C15.4103 39.7411 15.5719 39.6267 15.5719 39.3965V39.3946ZM17.3305 39.0808C17.2901 38.8506 17.1084 38.7565 16.7853 38.7983C16.4622 38.8611 16.3209 39.018 16.3613 39.2691C16.4016 39.5201 16.5834 39.6038 16.9064 39.5201C17.2295 39.4364 17.3715 39.29 17.3324 39.0808H17.3305Z" fill="white"/>
</svg>
