<svg id="esZ5OowmARU1" xmlns="http://www.w3.org/2000/svg" xmlns:xlink="http://www.w3.org/1999/xlink" viewBox="0 0 81 73" shape-rendering="geometricPrecision" text-rendering="geometricPrecision" style="background-color:transparent"><style><![CDATA[#esZ5OowmARU6_tr {animation: esZ5OowmARU6_tr__tr 1000ms linear infinite normal forwards}@keyframes esZ5OowmARU6_tr__tr { 0% {transform: translate(35.156050px,32.539147px) rotate(-0.120332deg)} 40% {transform: translate(35.156050px,32.539147px) rotate(-180.016553deg)} 80% {transform: translate(35.156050px,32.539147px) rotate(-360.181705deg)} 100% {transform: translate(35.156050px,32.539147px) rotate(-360.181705deg)}} #esZ5OowmARU6_ts {animation: esZ5OowmARU6_ts__ts 1000ms linear infinite normal forwards}@keyframes esZ5OowmARU6_ts__ts { 0% {transform: scale(1.058063,1.224911)} 40% {transform: scale(0.673764,0.780449)} 80% {transform: scale(1.058063,1.224911)} 100% {transform: scale(1.058063,1.224911)}}]]></style><ellipse id="esZ5OowmARU2" rx="35.481800" ry="33.556500" transform="matrix(1 0 0 1 35.48180000000000 33.55650000000000)" fill="rgb(155,142,255)" stroke="none" stroke-width="1" stroke-miterlimit="1"/><ellipse id="esZ5OowmARU3" rx="23.654600" ry="21.179100" transform="matrix(1 0 0 1 35.20720000000000 33.83140000000000)" fill="rgb(28,26,57)" stroke="none" stroke-width="1" stroke-miterlimit="1"/><rect id="esZ5OowmARU4" width="26.563700" height="17.320600" rx="0" ry="0" transform="matrix(0.78258600000000 0.62254200000000 -0.62254200000000 0.78258600000000 59.74173965039999 42.90813626080001)" fill="rgb(155,142,255)" stroke="none" stroke-width="1" stroke-miterlimit="1"/><rect id="esZ5OowmARU5" width="26.593700" height="25.855000" rx="0" ry="0" transform="matrix(1 0 0 1 18.15360000000000 20.90410000000000)" fill="rgb(28,26,57)" stroke="none" stroke-width="1" stroke-miterlimit="1"/><g id="esZ5OowmARU6_tr" transform="translate(35.156050,32.539147) rotate(-0.120332)"><g id="esZ5OowmARU6_ts" transform="scale(1.058063,1.224911)"><path id="esZ5OowmARU6" d="M31.823255,36.944067C31.823255,38.210567,31.164155,40.283067,29.603955,40.283067C28.043755,40.283067,27.384655,38.210567,27.384655,36.944067C27.384655,35.677567,28.043755,33.605167,29.603955,33.605167C31.164155,33.605167,31.823255,35.677567,31.823255,36.944067ZM49.595955,33.883967C49.595955,35.816967,49.402455,37.865167,48.537655,39.640667C46.245755,44.282467,39.944655,44.173367,35.433455,44.173367C30.849655,44.173367,24.173555,44.336967,21.791055,39.640667C20.908155,37.883367,20.569455,35.816967,20.569455,33.883967C20.569455,31.344867,21.410055,28.945267,23.079055,27.000067C22.764555,26.042567,22.613455,25.036667,22.613455,24.042867C22.613455,22.740067,22.909755,22.085567,23.496355,20.903967C26.235655,20.903967,27.989355,21.449267,30.075655,23.085467C31.829355,22.667267,33.631355,22.479467,35.439455,22.479467C37.072255,22.479467,38.717055,22.655167,40.301455,23.036967C42.357455,21.418967,44.111155,20.903967,46.820255,20.903967C47.412855,22.085567,47.703155,22.740067,47.703155,24.042867C47.703155,25.036667,47.545955,26.024367,47.237555,26.963667C48.900455,28.927067,49.595955,31.344867,49.595955,33.883967ZM45.707555,36.944067C45.707555,34.283867,44.092955,31.938767,41.262955,31.938767C40.119955,31.938767,39.025455,32.144767,37.876455,32.302367C36.975455,32.441667,36.074455,32.496267,35.149255,32.496267C34.230055,32.496267,33.329055,32.441667,32.421955,32.302367C31.291155,32.144767,30.184455,31.938767,29.035555,31.938767C26.205455,31.938767,24.590855,34.283867,24.590855,36.944067C24.590855,42.264567,29.452755,43.082667,33.685755,43.082667L36.600555,43.082667C40.851655,43.082667,45.707555,42.270667,45.707555,36.944067ZM40.712655,33.605167C39.152455,33.605167,38.493255,35.677567,38.493255,36.944067C38.493255,38.210567,39.152455,40.283067,40.712655,40.283067C42.272755,40.283067,42.931955,38.210567,42.931955,36.944067C42.931955,35.677567,42.272755,33.605167,40.712655,33.605167Z" transform="translate(-35.156050,-32.539147)" fill="rgb(105,204,142)" stroke="none" stroke-width="1" stroke-miterlimit="1"/></g></g></svg>