<svg width="33" height="31" viewBox="0 0 33 31" fill="none" xmlns="http://www.w3.org/2000/svg">
<path d="M12.7944 21.3684C12.7944 23.0556 12.045 25.8164 10.2712 25.8164C8.4975 25.8164 7.74813 23.0556 7.74813 21.3684C7.74813 19.6812 8.4975 16.9203 10.2712 16.9203C12.045 16.9203 12.7944 19.6812 12.7944 21.3684ZM33 17.2917C33 19.8669 32.78 22.5954 31.7969 24.9607C29.1912 31.1444 22.0275 30.9991 16.8988 30.9991C11.6875 30.9991 4.0975 31.217 1.38875 24.9607C0.385 22.6196 0 19.8669 0 17.2917C0 13.9092 0.955625 10.7124 2.85313 8.12111C2.49563 6.84563 2.32375 5.50557 2.32375 4.18165C2.32375 2.44602 2.66063 1.57417 3.3275 0C6.44187 0 8.43563 0.726541 10.8075 2.90616C12.8013 2.34915 14.85 2.0989 16.9056 2.0989C18.7619 2.0989 20.6319 2.333 22.4331 2.84158C24.7706 0.686177 26.7644 0 29.8444 0C30.5181 1.57417 30.8481 2.44602 30.8481 4.18165C30.8481 5.50557 30.6694 6.82141 30.3188 8.07268C32.2094 10.6882 33 13.9092 33 17.2917ZM28.5794 21.3684C28.5794 17.8245 26.7438 14.7003 23.5263 14.7003C22.2269 14.7003 20.9825 14.9748 19.6763 15.1847C18.6519 15.3704 17.6275 15.443 16.5756 15.443C15.5306 15.443 14.5063 15.3704 13.475 15.1847C12.1894 14.9748 10.9313 14.7003 9.625 14.7003C6.4075 14.7003 4.57188 17.8245 4.57188 21.3684C4.57188 28.4562 10.0994 29.546 14.9119 29.546H18.2256C23.0588 29.546 28.5794 28.4643 28.5794 21.3684ZM22.9006 16.9203C21.1269 16.9203 20.3775 19.6812 20.3775 21.3684C20.3775 23.0556 21.1269 25.8164 22.9006 25.8164C24.6744 25.8164 25.4237 23.0556 25.4237 21.3684C25.4237 19.6812 24.6744 16.9203 22.9006 16.9203Z" fill="#69CC8E"/>
</svg>
