<svg width="27" height="33" viewBox="0 0 27 33" fill="none" xmlns="http://www.w3.org/2000/svg">
<path d="M7.67983 11.8594C7.67983 9.86913 9.18711 8.25 11.0398 8.25H19.1996V3.60938C19.1996 2.75505 18.5549 2.0625 17.7596 2.0625H12.9231C12.2581 0.830801 11.018 0 9.59978 0C8.1816 0 6.94148 0.830801 6.27646 2.0625H1.43997C0.644686 2.0625 0 2.75505 0 3.60938V25.2656C0 26.12 0.644686 26.8125 1.43997 26.8125H7.67983V11.8594ZM9.59978 2.57812C10.3951 2.57812 11.0398 3.27067 11.0398 4.125C11.0398 4.97933 10.3951 5.67188 9.59978 5.67188C8.8045 5.67188 8.15982 4.97933 8.15982 4.125C8.15982 3.27067 8.8045 2.57812 9.59978 2.57812ZM20.6395 18.5625H26.8794V31.4531C26.8794 32.3074 26.2347 33 25.4394 33H11.0398C10.2445 33 9.59978 32.3074 9.59978 31.4531V11.8594C9.59978 11.005 10.2445 10.3125 11.0398 10.3125H19.1996V17.0156C19.1996 17.8664 19.8476 18.5625 20.6395 18.5625ZM26.8794 16.1095V16.5H21.1195V10.3125H21.4831C21.8649 10.3125 22.2312 10.4755 22.5012 10.7655L26.4576 15.0156C26.7277 15.3057 26.8794 15.6992 26.8794 16.1095Z" fill="#69CC8E"/>
</svg>
