<svg width="32" height="32" viewBox="0 0 32 32" fill="none" xmlns="http://www.w3.org/2000/svg">
<path d="M10.4727 16.0563C10.0364 16.3456 9.74545 16.9242 9.89091 17.3581C9.89091 18.3707 10.9091 19.0939 11.7818 19.0939C12.6545 19.0939 13.5273 18.3707 13.5273 17.3581C12.6545 16.7795 11.6364 16.3456 10.4727 16.0563ZM30.5455 14.4651L32 8.67906C32 8.67906 29.0909 8.67906 24.7273 5.78604C20.3636 2.89302 20.3636 0 16 0C11.6364 0 11.6364 2.89302 7.27273 5.78604C2.90909 8.67906 0 8.67906 0 8.67906L1.45455 14.4651H1.6C1.45455 14.899 1.45455 15.4776 1.45455 15.9116C1.45455 20.9744 4.07273 25.4586 8 28.0623L7.27273 29.3641C16.5818 35.2948 24.7273 29.3641 24.7273 29.3641L24 28.0623C27.9273 25.4586 30.5455 20.9744 30.5455 15.9116V14.4651ZM14.9818 5.06278L12.9455 3.03767L13.9636 2.02511L16 4.05023L18.0364 2.02511L19.0545 3.03767L17.0182 5.06278L19.0545 7.0879L18.0364 8.10045L16 6.07534L13.9636 8.10045L12.9455 7.0879L14.9818 5.06278ZM12.0727 10.8488C13.5273 10.4149 14.9818 10.1256 16 10.1256C19.2 10.1256 24.5818 12.44 27.3455 13.5972C27.4909 14.0311 27.4909 14.4651 27.4909 14.899L12.0727 10.8488ZM18.3273 26.1818C17.3091 26.7604 16.2909 27.1944 15.1273 27.339C14.4 26.7604 14.4 25.6032 15.1273 25.0246C15.7091 24.446 17.0182 24.1567 17.7455 24.88C18.1818 25.0246 18.3273 25.7479 18.3273 26.1818ZM27.6364 17.9367C26.9091 20.9744 25.0182 23.7228 22.5455 25.4586L20.3636 21.6976H11.6364L9.45455 25.4586C6.4 23.4335 4.36364 19.9618 4.36364 15.9116C4.36364 15.1883 4.50909 14.4651 4.65455 13.7418C5.38182 13.4525 6.25455 13.0186 7.27273 12.5846L17.6 15.333V18.8046C17.6 19.5279 18.1818 20.2511 19.0545 20.2511H21.9636C22.6909 20.2511 23.4182 19.6725 23.4182 18.8046V16.7795L27.6364 17.9367Z" fill="white"/>
</svg>
