<svg width="51" height="51" viewBox="0 0 51 51" fill="none" xmlns="http://www.w3.org/2000/svg">
<path d="M25.5 0C11.4181 0 0 11.4181 0 25.5C0 39.5819 11.4181 51 25.5 51C39.5819 51 51 39.5819 51 25.5C51 11.4181 39.5819 0 25.5 0ZM33.7021 25.8927L21.2709 34.9373C21.2027 34.9862 21.1224 35.0155 21.0387 35.0218C20.955 35.0281 20.8712 35.0112 20.7965 34.9729C20.7218 34.9347 20.6591 34.8766 20.6152 34.805C20.5714 34.7335 20.5481 34.6512 20.548 34.5673V16.4896C20.5477 16.4055 20.5707 16.323 20.6145 16.2512C20.6582 16.1794 20.721 16.1211 20.7959 16.0828C20.8707 16.0445 20.9547 16.0276 21.0386 16.0341C21.1224 16.0406 21.2028 16.0702 21.2709 16.1196L33.7021 25.1585C33.7608 25.2 33.8088 25.255 33.8418 25.3189C33.8749 25.3828 33.8921 25.4537 33.8921 25.5256C33.8921 25.5975 33.8749 25.6684 33.8418 25.7323C33.8088 25.7962 33.7608 25.8512 33.7021 25.8927V25.8927Z" fill="#69CC8E"/>
</svg>
