<svg width="23" height="22" viewBox="0 0 23 22" fill="none" xmlns="http://www.w3.org/2000/svg">
<path d="M19.5617 14.2804V6.50607C19.5558 4.76374 18.2856 2.16978 14.8105 2.16978V0L10.0711 3.25466L14.8105 6.50933V4.33955C16.9776 4.33955 17.1814 6.00919 17.192 6.50933V14.2804C15.4859 14.7512 14.2299 16.1865 14.2299 17.9006C14.2299 19.9945 16.0901 21.6978 18.3769 21.6978C20.6636 21.6978 22.5238 19.9945 22.5238 17.9006C22.5238 16.1865 21.2679 14.7512 19.5617 14.2804ZM18.3769 19.528C17.397 19.528 16.5996 18.7978 16.5996 17.9006C16.5996 17.0034 17.397 16.2733 18.3769 16.2733C19.3567 16.2733 20.1541 17.0034 20.1541 17.9006C20.1541 18.7978 19.3567 19.528 18.3769 19.528ZM8.29388 3.79711C8.29388 1.70327 6.43368 0 4.14694 0C1.8602 0 0 1.70327 0 3.79711C0 5.51123 1.25593 6.94654 2.9621 7.41738V14.2804C1.25593 14.7512 0 16.1865 0 17.9006C0 19.9945 1.8602 21.6978 4.14694 21.6978C6.43368 21.6978 8.29388 19.9945 8.29388 17.9006C8.29388 16.1865 7.03795 14.7512 5.33178 14.2804V7.41738C7.03795 6.94654 8.29388 5.51123 8.29388 3.79711ZM2.36968 3.79711C2.36968 2.8999 3.16708 2.16978 4.14694 2.16978C5.1268 2.16978 5.9242 2.8999 5.9242 3.79711C5.9242 4.69431 5.1268 5.42444 4.14694 5.42444C3.16708 5.42444 2.36968 4.69431 2.36968 3.79711ZM5.9242 17.9006C5.9242 18.7978 5.1268 19.528 4.14694 19.528C3.16708 19.528 2.36968 18.7978 2.36968 17.9006C2.36968 17.0034 3.16708 16.2733 4.14694 16.2733C5.1268 16.2733 5.9242 17.0034 5.9242 17.9006Z" fill="#69CC8E"/>
</svg>
