<svg width="37" height="29" viewBox="0 0 37 29" fill="none" xmlns="http://www.w3.org/2000/svg">
<path d="M26.7185 11.8693H36.057C36.1698 11.8693 36.2803 11.9015 36.3755 11.962C36.4707 12.0226 36.5467 12.109 36.5945 12.2112C36.6424 12.3134 36.6601 12.4271 36.6457 12.539C36.6312 12.6509 36.5852 12.7563 36.513 12.843L31.8438 18.448C31.7881 18.5148 31.7183 18.5686 31.6395 18.6055C31.5607 18.6424 31.4748 18.6615 31.3878 18.6615C31.3008 18.6615 31.2148 18.6424 31.136 18.6055C31.0572 18.5686 30.9875 18.5148 30.9318 18.448L26.2625 12.843C26.1903 12.7563 26.1443 12.6509 26.1299 12.539C26.1154 12.4271 26.1332 12.3134 26.181 12.2112C26.2289 12.109 26.3049 12.0226 26.4 11.962C26.4952 11.9015 26.6057 11.8693 26.7185 11.8693ZM0.593528 16.6193H9.93203C10.0449 16.6192 10.1553 16.587 10.2505 16.5265C10.3457 16.4659 10.4217 16.3795 10.4695 16.2773C10.5174 16.1751 10.5351 16.0615 10.5207 15.9496C10.5062 15.8377 10.4602 15.7322 10.388 15.6455L5.71878 10.0405C5.66305 9.97369 5.59333 9.91993 5.51453 9.88304C5.43573 9.84615 5.34978 9.82703 5.26278 9.82703C5.17577 9.82703 5.08983 9.84615 5.01103 9.88304C4.93223 9.91993 4.8625 9.97369 4.80678 10.0405L0.137528 15.6455C0.0653224 15.7322 0.0193098 15.8377 0.00487809 15.9496C-0.00955363 16.0615 0.00819287 16.1751 0.0560396 16.2773C0.103886 16.3795 0.179853 16.4659 0.275043 16.5265C0.370233 16.587 0.480707 16.6192 0.593528 16.6193Z" fill="#69CC8E"/>
<path fill-rule="evenodd" clip-rule="evenodd" d="M18.3251 2.36975C14.6391 2.36975 11.3426 4.04888 9.16472 6.6875C9.06747 6.81355 8.94586 6.91876 8.80714 6.99687C8.66842 7.07498 8.5154 7.1244 8.35719 7.14218C8.19899 7.15997 8.03882 7.14577 7.88621 7.10041C7.7336 7.05506 7.59168 6.97948 7.46887 6.87817C7.34605 6.77686 7.24487 6.6519 7.17132 6.5107C7.09778 6.3695 7.05337 6.21495 7.04075 6.05625C7.02813 5.89755 7.04756 5.73793 7.09786 5.58688C7.14817 5.43584 7.22833 5.29645 7.33359 5.177C9.07254 3.07163 11.3796 1.51003 13.9804 0.677936C16.5812 -0.154157 19.3663 -0.221726 22.0044 0.483266C24.6425 1.18826 27.0226 2.63614 28.8616 4.65471C30.7006 6.67328 31.9211 9.17758 32.378 11.8698H29.9626C29.4142 9.18792 27.9566 6.77774 25.8361 5.04672C23.7156 3.31571 21.0624 2.37009 18.3251 2.36975ZM6.68759 16.6198C7.1372 18.8157 8.19893 20.8397 9.7501 22.4578C11.3013 24.076 13.2786 25.2222 15.4536 25.7642C17.6287 26.3061 19.9126 26.2217 22.0417 25.5206C24.1708 24.8194 26.058 23.5303 27.4855 21.802C27.5827 21.676 27.7043 21.5707 27.843 21.4926C27.9818 21.4145 28.1348 21.3651 28.293 21.3473C28.4512 21.3295 28.6114 21.3437 28.764 21.3891C28.9166 21.4345 29.0585 21.51 29.1813 21.6113C29.3041 21.7126 29.4053 21.8376 29.4789 21.9788C29.5524 22.12 29.5968 22.2746 29.6094 22.4333C29.622 22.592 29.6026 22.7516 29.5523 22.9026C29.502 23.0537 29.4218 23.1931 29.3166 23.3125C27.5776 25.4179 25.2706 26.9795 22.6698 27.8116C20.069 28.6437 17.2839 28.7112 14.6458 28.0062C12.0077 27.3012 9.62762 25.8534 7.78862 23.8348C5.94961 21.8162 4.72909 19.3119 4.27222 16.6198H6.68759Z" fill="#69CC8E"/>
</svg>
